<svg xmlns="http://www.w3.org/2000/svg" viewBox="0 0 1819.83 556.5"><defs><style>.cls-1{fill:none;stroke:#fff;stroke-linecap:round;stroke-linejoin:round;stroke-width:65px;}</style></defs><g id="Layer_2" data-name="Layer 2"><g id="Layer_6" data-name="Layer 6"><path class="cls-1" d="M1262.85,399.71l236.7-2.31a117.67,117.67,0,0,0-15.26-56.59,123.7,123.7,0,0,0-49-47.54c-8.42-4.5-38.9-20.24-79.11-13.88a124,124,0,0,0-66.21,33.11c-29.61,28.45-47.77,75.2-33.81,121.61,16.26,54,66.38,75.48,74,78.6,47.41,19.37,103.94,9.73,146.6-24.08"/><path class="cls-1" d="M1550.61,397.84l236.72-.41a117.77,117.77,0,0,0-14.82-56.72,123.64,123.64,0,0,0-48.65-47.92c-8.38-4.57-38.74-20.55-79-14.51a124.08,124.08,0,0,0-66.47,32.57c-29.84,28.22-48.37,74.82-34.78,121.33,15.82,54.16,65.77,76,73.38,79.19,47.25,19.76,103.85,10.57,146.78-22.9"/><path class="cls-1" d="M657.22,456.66c14.9,28.83,38.35,42.85,46,47.28,41.1,23.86,97.24,24,137.23-4.09,24-16.85,34.7-38.61,38.62-46.81,4.55-9.54,20.73-46.59,7.12-89.78-12.9-41-49.37-77.24-98.19-85.05-62.57-10-105.68,33.1-109.25,36.8C641.18,353.88,634.69,413.05,657.22,456.66Z"/><path class="cls-1" d="M359.73,457.81c14.9,28.83,38.35,42.86,46,47.28,41.1,23.86,97.24,24,137.23-4.08,24-16.85,34.71-38.62,38.62-46.81,4.55-9.54,20.73-46.59,7.12-89.79-12.9-41-49.37-77.24-98.19-85.05-62.57-10-105.68,33.11-109.25,36.81C343.7,355,337.2,414.2,359.73,457.81Z"/><line class="cls-1" x1="948.39" y1="32.5" x2="948.39" y2="524"/><line class="cls-1" x1="1095.39" y1="155.13" x2="970.08" y2="284.99"/><line class="cls-1" x1="35.4" y1="268.11" x2="32.5" y2="524"/><path class="cls-1" d="M34.43,449.65c0-7.25,1.44-95.17,57.94-134.22,22.94-15.86,48.28-20.28,48.28-20.28a121,121,0,0,1,58.9,4.83,124.84,124.84,0,0,1,37.09,20.38c29.44,23.4,40.17,53.43,45,67.49,5.65,16.49,7.06,30.85,9.66,58.9a694.5,694.5,0,0,1,2.89,74.35"/><line class="cls-1" x1="952.73" y1="268.11" x2="949.84" y2="524"/><path class="cls-1" d="M951.77,449.65c0-7.25,1.44-95.17,57.94-134.22,22.94-15.86,48.28-20.28,48.28-20.28a121,121,0,0,1,58.9,4.83A124.84,124.84,0,0,1,1154,320.36c29.44,23.4,40.17,53.43,45,67.49,5.65,16.49,7.06,30.85,9.65,58.9a695,695,0,0,1,2.9,74.35"/></g></g></svg>